<svg width="1000" height="1000" viewBox="0 0 1000 1000" fill="none" xmlns="http://www.w3.org/2000/svg">
<path d="M875 666.663V333.33C874.985 318.716 871.127 304.363 863.814 291.711C856.501 279.059 845.989 268.553 833.333 261.246L541.667 94.5796C528.998 87.2656 514.628 83.415 500 83.415C485.372 83.415 471.002 87.2656 458.333 94.5796L166.667 261.246C154.011 268.553 143.499 279.059 136.186 291.711C128.873 304.363 125.015 318.716 125 333.33V666.663C125.015 681.277 128.873 695.629 136.186 708.281C143.499 720.933 154.011 731.439 166.667 738.746L458.333 905.413C471.002 912.727 485.372 916.578 500 916.578C514.628 916.578 528.998 912.727 541.667 905.413L833.333 738.746C845.989 731.439 856.501 720.933 863.814 708.281C871.127 695.629 874.985 681.277 875 666.663Z" stroke="black" stroke-width="84.1667" stroke-linecap="round" stroke-linejoin="round"/>
<path d="M136.25 289.998L500 500.415L863.75 289.998" stroke="black" stroke-width="84.1667" stroke-linecap="round" stroke-linejoin="round"/>
<path d="M500 920V500" stroke="black" stroke-width="84.1667" stroke-linecap="round" stroke-linejoin="round"/>
</svg>
