<svg width="1000" height="1000" viewBox="0 0 1000 1000" fill="none" xmlns="http://www.w3.org/2000/svg">
<path d="M150 450C205.156 450 250 405.156 250 350C250 294.844 205.156 250 150 250C94.8438 250 50 294.844 50 350C50 405.156 94.8438 450 150 450ZM850 450C905.156 450 950 405.156 950 350C950 294.844 905.156 250 850 250C794.844 250 750 294.844 750 350C750 405.156 794.844 450 850 450ZM900 500H800C772.5 500 747.656 511.094 729.531 529.063C792.5 563.594 837.188 625.938 846.875 700H950C977.656 700 1000 677.656 1000 650V600C1000 544.844 955.156 500 900 500ZM500 500C596.719 500 675 421.719 675 325C675 228.281 596.719 150 500 150C403.281 150 325 228.281 325 325C325 421.719 403.281 500 500 500ZM620 550H607.031C574.531 565.625 538.438 575 500 575C461.562 575 425.625 565.625 392.969 550H380C280.625 550 200 630.625 200 730V775C200 816.406 233.594 850 275 850H725C766.406 850 800 816.406 800 775V730C800 630.625 719.375 550 620 550ZM270.469 529.063C252.344 511.094 227.5 500 200 500H100C44.8438 500 0 544.844 0 600V650C0 677.656 22.3437 700 50 700H152.969C162.813 625.938 207.5 563.594 270.469 529.063Z" fill="black"/>
</svg>
