<svg width="1001" height="1001" viewBox="0 0 1001 1001" fill="none" xmlns="http://www.w3.org/2000/svg">
<path d="M709.014 125.013C719.958 114.07 732.949 105.389 747.248 99.4665C761.546 93.5439 776.871 90.4956 792.347 90.4956C807.824 90.4956 823.149 93.5439 837.447 99.4665C851.745 105.389 864.737 114.07 875.681 125.013C886.624 135.957 895.305 148.949 901.228 163.247C907.15 177.545 910.198 192.87 910.198 208.347C910.198 223.823 907.15 239.148 901.228 253.446C895.305 267.745 886.624 280.737 875.681 291.68L313.181 854.18L84.014 916.68L146.514 687.513L709.014 125.013Z" stroke="black" stroke-width="83.5816" stroke-linecap="round" stroke-linejoin="round"/>
</svg>
