<svg width="1000" height="1000" viewBox="0 0 1000 1000" fill="none" xmlns="http://www.w3.org/2000/svg">
<path d="M125 250H208.333H875" stroke="black" stroke-width="83.3333" stroke-linecap="round" stroke-linejoin="round"/>
<path d="M333.333 249.999V166.666C333.333 144.564 342.113 123.368 357.741 107.74C373.369 92.1123 394.565 83.3325 416.667 83.3325H583.333C605.435 83.3325 626.631 92.1123 642.259 107.74C657.887 123.368 666.667 144.564 666.667 166.666V249.999M791.667 249.999V833.332C791.667 855.434 782.887 876.63 767.259 892.258C751.631 907.886 730.435 916.666 708.333 916.666H291.667C269.565 916.666 248.369 907.886 232.741 892.258C217.113 876.63 208.333 855.434 208.333 833.332V249.999H791.667Z" stroke="black" stroke-width="83.3333" stroke-linecap="round" stroke-linejoin="round"/>
</svg>
